{"title":"jimmy.kimmel.Sarah Bareilles _SONG_ONLY_2011.06.07.hdtv.xvid.fqm","uid":6471838,"size":72090272,"categoryP":"video","categoryS":"tv_shows","magnet":"?xt=urn:btih:7b0d2554e7973cba10ac747791a578137b796de9&amp;dn=jimmy.kimmel.Sarah+Bareilles+_SONG_ONLY_2011.06.07.hdtv.xvid.fqm&amp;tr=udp%3A%2F%2Ftracker.openbittorrent.com%3A80&amp;tr=udp%3A%2F%2Fopen.demonii.com%3A1337&amp;tr=udp%3A%2F%2Ftracker.coppersurfer.tk%3A6969&amp;tr=udp%3A%2F%2Fexodus.desync.com%3A6969","seeders":0,"leechers":0,"uploader":"thetorrentlord","files":3,"time":1308168983,"description":"This was cut from an XVID file with AVIDeMUX. \t\t\t\t\t\t\t\t\t\t\t\t\t\t\t\t\t\t\t\t\t                                                                 Thanks to the uploader for the original file. \t\t\t\t\t\t\t\t\t\t\t\t\t\t\t\t\t\t\t\t\t                                                                     It includes the avi and an MP3. Enjoy and please share.\t\t\t\t\t\t\t\t\t\t\t\t\t\t\t\t\t\t\t\t\t********************************************************************************\t\t\t\t\t\t\t\t\t\t\t\t\t\t\t\t\t\t\t\t\t\t\t\t\t\t\t\tjimmy.kimmel.Sarah Bareilles _SONG_ONLY_2011.06.07.hdtv.xvid.fqm_TTL.avi\nFormat                           : AVI\nFormat/Info                      : Audio Video Interleave\nFile size                        : 63.5 MiB\nDuration                         : 3mn 48s\nOverall bit rate                 : 2 332 Kbps\n\nVideo\nID                               : 0\nFormat                           : MPEG-4 Visual\nFormat profile                   : Advanced Simple@L5\nFormat settings, BVOP            : Yes\nFormat settings, QPel            : No\nFormat settings, GMC             : No warppoints\nFormat settings, Matrix          : Default (H.263)\nCodec ID                         : XVID\nCodec ID/Hint                    : XviD\nDuration                         : 3mn 48s\nBit rate                         : 2 162 Kbps\nWidth                            : 624 pixels\nHeight                           : 352 pixels\nDisplay aspect ratio             : 16:9\nFrame rate                       : 29.970 fps\nColor space                      : YUV\nChroma subsampling               : 4:2:0\nBit depth                        : 8 bits\nScan type                        : Progressive\nBits/(Pixel*Frame)               : 0.328\nStream size                      : 58.9 MiB (93%)\nWriting library                  : XviD 1.2.1 (UTC 2008-12-04)\n\nAudio\nID                               : 1\nFormat                           : MPEG Audio\nFormat version                   : Version 1\nFormat profile                   : Layer 3\nCodec ID                         : 55\nCodec ID/Hint                    : MP3\nDuration                         : 3mn 48s\nBit rate mode                    : Variable\nBit rate                         : 164 Kbps\nChannel(s)                       : 2 channels\nSampling rate                    : 48.0 KHz\nBit depth                        : 16 bits\nStream size                      : 4.26 MiB (7%)\nAlignment                        : Aligned on interleaves\nInterleave, duration             : 24 ms (0.72 video frame)\n\n","torrent":{"xt":"urn:btih:7b0d2554e7973cba10ac747791a578137b796de9","amp;dn":"jimmy.kimmel.Sarah+Bareilles+_SONG_ONLY_2011.06.07.hdtv.xvid.fqm","amp;tr":["udp%3A%2F%2Ftracker.openbittorrent.com%3A80","udp%3A%2F%2Fopen.demonii.com%3A1337","udp%3A%2F%2Ftracker.coppersurfer.tk%3A6969","udp%3A%2F%2Fexodus.desync.com%3A6969"],"infoHash":"7b0d2554e7973cba10ac747791a578137b796de9","infoHashBuffer":{"type":"Buffer","data":[123,13,37,84,231,151,60,186,16,172,116,119,145,165,120,19,123,121,109,233]},"announce":[],"urlList":[]}}